<svg width="26" height="34" viewBox="0 0 26 34" fill="none" xmlns="http://www.w3.org/2000/svg">
<path d="M13 0C6.21033 0 0.686523 5.5238 0.686523 12.3134C0.686523 20.7396 11.7059 33.1097 12.1751 33.6322C12.6157 34.123 13.3851 34.1221 13.825 33.6322C14.2942 33.1097 25.3135 20.7396 25.3135 12.3134C25.3134 5.5238 19.7897 0 13 0ZM13 18.5087C9.58397 18.5087 6.80486 15.7295 6.80486 12.3134C6.80486 8.89738 9.58403 6.11827 13 6.11827C16.416 6.11827 19.1951 8.89744 19.1951 12.3135C19.1951 15.7296 16.416 18.5087 13 18.5087Z" fill="#1963AE"/>
</svg>
