<svg width="23" height="23" viewBox="0 0 23 23" fill="none" xmlns="http://www.w3.org/2000/svg">
<path d="M0.360309 13.9486C-0.120124 14.4291 -0.120124 15.208 0.360433 15.6885L0.988142 16.3162L2.48883 15.7291L1.92331 17.2515L5.07681 20.405L7.49816 18.9987L6.2657 21.5939L7.31103 22.6393C7.79159 23.1198 8.57049 23.1198 9.05092 22.6394L14.7491 16.9412L6.05847 8.25049L0.360309 13.9486Z"/>
<path d="M22.2697 0.734844L22.2646 0.729693C21.6651 0.130161 20.9004 -0.106797 20.0532 0.0443274C18.3409 0.349927 16.5454 2.20792 15.2505 5.0148C14.8913 5.79344 14.3818 6.23167 13.6926 6.35462C12.37 6.59065 10.6954 5.62593 9.69924 4.62976C9.49058 4.4211 9.15221 4.42116 8.94356 4.62982L7.90803 5.66541L9.43795 7.19533C9.63668 7.39406 9.63668 7.71617 9.43795 7.91489C9.23923 8.11362 8.91705 8.11362 8.71839 7.91489L7.18847 6.38497L6.80504 6.7684C6.59626 6.97718 6.59626 7.31549 6.80491 7.5242L15.4754 16.1946C15.6839 16.4032 16.0223 16.4032 16.2311 16.1945L18.3697 14.0559C18.5783 13.8473 18.5783 13.5089 18.3697 13.3002C17.3736 12.304 16.4088 10.6294 16.6449 9.30679C16.7678 8.6177 17.2061 8.10822 17.9847 7.749C20.7916 6.45405 22.6496 4.65868 22.9552 2.94635C23.1062 2.09906 22.8692 1.33438 22.2697 0.734844ZM21.2907 3.02529C20.9272 3.3888 20.3378 3.3888 19.9741 3.02529C19.6107 2.66173 19.6107 2.07231 19.9741 1.70874C20.3377 1.34518 20.9271 1.34518 21.2907 1.70874C21.6543 2.07231 21.6543 2.66173 21.2907 3.02529Z"/>
</svg>
