<svg width="23" height="23" viewBox="0 0 23 23" fill="none" xmlns="http://www.w3.org/2000/svg">
<path d="M7.93454 5.33247H15.0674C15.1647 5.33247 15.2544 5.2773 15.2985 5.18995C15.3426 5.1026 15.3335 4.99805 15.2749 4.91937L11.7096 0.10483C11.6601 0.0391051 11.5834 0 11.5013 0C11.4193 0 11.3418 0.0391051 11.2931 0.10483L7.72705 4.91937C7.66848 4.99805 7.65939 5.1026 7.7034 5.18995C7.74754 5.2773 7.8373 5.33247 7.93454 5.33247Z" />
<path d="M22.378 8.6795C22.3779 8.47313 22.2106 8.30588 22.0043 8.30588H21.286C21.0815 8.30588 20.9149 8.47026 20.9122 8.67483L20.9018 9.47828H20.0232V8.67964C20.0232 8.47323 19.8558 8.30588 19.6494 8.30588H18.9202C18.7138 8.30588 18.5464 8.47323 18.5464 8.67964V9.47828H17.6693V8.67964C17.6693 8.47323 17.502 8.30588 17.2956 8.30588H16.5652C16.3589 8.30588 16.1916 8.47299 16.1914 8.67926L16.1879 12.1026H14.4657V6.34539C14.4657 6.18926 14.3395 6.06299 14.1837 6.06299H8.82017C8.66441 6.06299 8.53824 6.18926 8.53824 6.34539V12.1027H6.83043L6.8325 8.67992C6.83255 8.58079 6.79321 8.48562 6.72315 8.41551C6.65305 8.34541 6.55792 8.30597 6.45879 8.30597H5.71377C5.50736 8.30597 5.34001 8.47332 5.34001 8.67973V9.47837H4.46283V8.67973C4.46283 8.47332 4.29548 8.30597 4.08907 8.30597H3.35988C3.15347 8.30597 2.98612 8.47332 2.98612 8.67973V9.47837H2.10748V8.67973C2.10748 8.47332 1.94013 8.30597 1.73372 8.30597H1.00411C0.797838 8.30597 0.630534 8.47309 0.630345 8.67935L0.616211 22.9999H8.70309V20.5856C8.70309 19.0408 9.95563 17.7886 11.5 17.7886C13.0444 17.7886 14.297 19.0408 14.297 20.5856V22.9998H22.3839L22.378 8.6795ZM4.71362 14.8795C4.71362 15.0357 4.5874 15.1619 4.43159 15.1619H3.01792C2.86216 15.1619 2.73604 15.0357 2.73604 14.8795V12.0621C2.73604 11.516 3.17835 11.0733 3.72478 11.0733C4.27051 11.0733 4.71362 11.5161 4.71362 12.0621V14.8795ZM12.4904 11.0045C12.4904 11.1606 12.3642 11.2868 12.2084 11.2868H10.7947C10.6389 11.2868 10.5128 11.1606 10.5128 11.0045V8.18696C10.5128 7.64085 10.9551 7.19812 11.5016 7.19812C12.0473 7.19812 12.4904 7.64085 12.4904 8.18696V11.0045ZM20.2748 14.8795C20.2748 15.0357 20.1485 15.1619 19.9928 15.1619H18.5792C18.4233 15.1619 18.2971 15.0357 18.2971 14.8795V12.0621C18.2971 11.516 18.7395 11.0733 19.286 11.0733C19.8317 11.0733 20.2748 11.5161 20.2748 12.0621V14.8795Z" />
</svg>
