<svg width="23" height="17" viewBox="0 0 23 17" fill="none" xmlns="http://www.w3.org/2000/svg">
<path d="M20.8427 14.7065H0.464187C0.316848 14.7065 0.178326 14.7764 0.0908501 14.895C0.00337468 15.0135 -0.0228447 15.1664 0.0205449 15.307C0.286452 16.1711 1.07187 16.7517 1.9761 16.7517H19.3308C20.2348 16.7517 21.0197 16.1711 21.2859 15.307C21.3295 15.1664 21.3031 15.0131 21.2156 14.895C21.1283 14.7762 20.9896 14.7065 20.8427 14.7065Z"/>
<path d="M18.7016 0.758055C18.5807 0.758055 18.4554 0.76432 18.3069 0.77801V0.712112C18.3069 0.455948 18.0992 0.248047 17.8428 0.248047H3.48945C3.23329 0.248047 3.02539 0.455948 3.02539 0.712112V12.1214C3.02539 13.1235 3.84121 13.9391 4.84358 13.9391H16.4892C17.4916 13.9391 18.3069 13.1235 18.3069 12.1214V9.3356C18.4554 9.34953 18.5809 9.35556 18.7016 9.35556C21.5539 9.35556 22.9999 7.9093 22.9999 5.05692C23.0002 2.36511 21.3934 0.758055 18.7016 0.758055ZM18.7016 7.08303C18.5714 7.08303 18.4387 7.0698 18.3069 7.04382V3.06956H18.3074C18.4387 3.04358 18.5719 3.03058 18.7016 3.03058C20.1404 3.03058 20.7277 3.61762 20.7277 5.05692C20.7281 6.77698 20.1966 7.08303 18.7016 7.08303Z"/>
</svg>
