<svg width="18" height="22" viewBox="0 0 18 22" fill="none" xmlns="http://www.w3.org/2000/svg">
<path d="M16.2547 8.88451H15.826V6.87821C15.826 3.16739 12.8813 0.0675278 9.20064 0.00135598C9.10007 -0.000451993 8.89911 -0.000451993 8.79859 0.00135598C5.11787 0.0675278 2.17314 3.16739 2.17314 6.87821V8.88451H1.74442C1.08379 8.88451 0.544922 9.56621 0.544922 10.4081V20.471C0.544922 21.3119 1.08379 22 1.74447 22H16.2547C16.9153 22 17.4543 21.3119 17.4543 20.471V10.4081C17.4543 9.56626 16.9154 8.88451 16.2547 8.88451ZM10.359 15.4293V18.4699C10.359 18.8181 10.0675 19.1128 9.71907 19.1128H8.2802C7.93171 19.1128 7.64022 18.8181 7.64022 18.4699V15.4293C7.30227 15.0967 7.10551 14.6367 7.10551 14.1278C7.10551 13.1635 7.8509 12.3349 8.79864 12.2967C8.89907 12.2926 9.10025 12.2926 9.20068 12.2967C10.1484 12.3349 10.8938 13.1635 10.8938 14.1278C10.8937 14.6367 10.697 15.0967 10.359 15.4293ZM13.0006 8.88451H9.20064H8.79859H4.99859V6.87821C4.99859 4.66773 6.79499 2.84001 8.99959 2.84001C11.2042 2.84001 13.0007 4.66773 13.0007 6.87821V8.88451H13.0006Z" />
</svg>
