<svg width="23" height="23" viewBox="0 0 23 23" fill="none" xmlns="http://www.w3.org/2000/svg">
<path d="M1.50999 8.42672C1.63089 8.84123 1.79866 9.24094 2.01085 9.61597L1.40636 10.3784C1.20897 10.6276 1.23118 10.9829 1.45324 11.2074L2.49445 12.2486C2.71898 12.4731 3.07428 12.4929 3.32348 12.2955L4.08095 11.6959C4.47079 11.9205 4.8853 12.0956 5.31709 12.219L5.43058 13.1936C5.46759 13.5094 5.73407 13.7463 6.04989 13.7463H7.52289C7.83871 13.7463 8.10518 13.5094 8.14219 13.1936L8.25075 12.2535C8.71461 12.1326 9.15873 11.9525 9.57571 11.7181L10.3085 12.2979C10.5577 12.4953 10.913 12.4731 11.1375 12.2511L12.1788 11.2098C12.4033 10.9853 12.423 10.63 12.2256 10.3808L11.6557 9.65789C11.8925 9.24829 12.0776 8.8116 12.201 8.35514L13.0793 8.25398C13.3952 8.21697 13.632 7.9505 13.632 7.63468V6.16168C13.632 5.84586 13.3951 5.57938 13.0793 5.54237L12.2133 5.44121C12.0948 4.98969 11.9172 4.55791 11.6902 4.15326L12.2232 3.47968C12.4206 3.23048 12.3984 2.87518 12.1763 2.65065L11.1376 1.61191C10.913 1.38738 10.5577 1.36764 10.3085 1.56503L9.65469 2.08317C9.23031 1.83397 8.77629 1.64398 8.30012 1.51568L8.20143 0.669383C8.16442 0.353564 7.89795 0.116699 7.58213 0.116699H6.10913C5.79331 0.116699 5.52683 0.353564 5.48982 0.669383L5.39113 1.51568C4.9026 1.64645 4.43627 1.84384 4.00202 2.10291L3.3235 1.56503C3.0743 1.36764 2.71901 1.38985 2.49448 1.61191L1.45326 2.65312C1.22873 2.87765 1.209 3.23295 1.40638 3.48215L1.97387 4.20014C1.74687 4.60972 1.57416 5.04644 1.46066 5.50043L0.552683 5.60406C0.236864 5.64107 0 5.90754 0 6.22336V7.69636C0 8.01218 0.236864 8.27865 0.552683 8.31566L1.50999 8.42672ZM6.84684 4.44197C8.18907 4.44197 9.2821 5.535 9.2821 6.87723C9.2821 8.21946 8.18907 9.31249 6.84684 9.31249C5.50463 9.31249 4.41157 8.21946 4.41157 6.87723C4.41157 5.535 5.5046 4.44197 6.84684 4.44197Z"/>
<path d="M21.4091 8.78922L20.6319 8.1329C20.3926 7.93058 20.0398 7.94045 19.8128 8.15511L19.3835 8.55729C19.0208 8.38211 18.6359 8.25874 18.2386 8.18719L18.1178 7.59503C18.0561 7.28908 17.7723 7.07688 17.4614 7.10156L16.4473 7.18791C16.1365 7.21506 15.8922 7.46919 15.8823 7.78254L15.8626 8.38457C15.4727 8.52521 15.1051 8.71766 14.7695 8.95946L14.2564 8.61897C13.9948 8.44626 13.6469 8.4956 13.4446 8.73493L12.7883 9.51708C12.586 9.75641 12.5958 10.1092 12.8105 10.3362L13.2595 10.8149C13.1041 11.1652 12.993 11.5329 12.9289 11.9104L12.2874 12.0411C11.9815 12.1028 11.7693 12.3866 11.7939 12.6975L11.8803 13.7116C11.9074 14.0224 12.1616 14.2667 12.4749 14.2766L13.1682 14.2988C13.2941 14.6294 13.4594 14.9428 13.6592 15.2363L13.2719 15.8211C13.0992 16.0826 13.1485 16.4305 13.3878 16.6329L14.1651 17.2892C14.4044 17.4915 14.7572 17.4816 14.9842 17.267L15.4925 16.7908C15.8256 16.9462 16.1759 17.0622 16.5362 17.1313L16.6768 17.827C16.7385 18.133 17.0223 18.3452 17.3331 18.3205L18.3472 18.2342C18.6581 18.207 18.9024 17.9529 18.9122 17.6395L18.9344 16.9585C19.3045 16.8278 19.6549 16.6501 19.9781 16.4305L20.5382 16.8006C20.7997 16.9733 21.1476 16.924 21.35 16.6847L22.0063 15.9075C22.2086 15.6681 22.1987 15.3153 21.9841 15.0883L21.5325 14.6097C21.6979 14.2593 21.8188 13.8892 21.8878 13.5092L22.5047 13.3834C22.8106 13.3217 23.0228 13.0379 22.9981 12.727L22.9118 11.713C22.8846 11.4021 22.6305 11.1578 22.3171 11.1479L21.6978 11.1282C21.5695 10.768 21.3968 10.4275 21.1822 10.1117L21.5202 9.60339C21.6978 9.3419 21.6485 8.99154 21.4091 8.78922ZM17.5873 14.6516C16.4918 14.7454 15.5245 13.9287 15.4333 12.8332C15.3395 11.7377 16.1562 10.7705 17.2517 10.6792C18.3472 10.5854 19.3144 11.4021 19.4057 12.4976C19.4995 13.5931 18.6827 14.5603 17.5873 14.6516Z"/>
<path d="M5.05821 17.3807C4.74733 17.4127 4.50799 17.6742 4.50553 17.9876L4.49812 18.6119C4.49319 18.9252 4.72512 19.1917 5.036 19.2312L5.49493 19.2904C5.57142 19.5692 5.67998 19.8357 5.82062 20.0874L5.52454 20.4525C5.32715 20.6968 5.34195 21.0471 5.56155 21.2717L5.99827 21.7183C6.21786 21.9428 6.56822 21.9675 6.81742 21.775L7.18503 21.4913C7.4441 21.6442 7.718 21.7652 8.00419 21.849L8.05354 22.3228C8.08561 22.6336 8.34715 22.873 8.6605 22.8754L9.28476 22.8828C9.59809 22.8878 9.86459 22.6559 9.90406 22.345L9.96081 21.8959C10.2717 21.8194 10.5678 21.7035 10.8491 21.5505L11.1945 21.8293C11.4388 22.0267 11.7891 22.0119 12.0137 21.7923L12.4603 21.3556C12.6848 21.136 12.7095 20.7856 12.517 20.5364L12.253 20.1934C12.4158 19.922 12.5417 19.6333 12.628 19.3299L13.0376 19.2879C13.3485 19.2558 13.5878 18.9943 13.5903 18.6809L13.5977 18.0567C13.6026 17.7434 13.3707 17.4769 13.0598 17.4374L12.6601 17.3856C12.5836 17.0846 12.4701 16.7934 12.3221 16.522L12.5713 16.216C12.7687 15.9718 12.7539 15.6214 12.5343 15.3969L12.0976 14.9503C11.878 14.7258 11.5276 14.7011 11.2784 14.8936L10.9798 15.123C10.6986 14.9528 10.3975 14.822 10.0817 14.7332L10.0422 14.3458C10.0102 14.0349 9.74865 13.7956 9.43527 13.7931L8.81103 13.7857C8.49768 13.7808 8.23121 14.0127 8.19171 14.3236L8.14236 14.7085C7.8167 14.7924 7.50334 14.9207 7.2122 15.0885L6.90378 14.8368C6.65951 14.6394 6.30913 14.6542 6.0846 14.8738L5.63554 15.313C5.41102 15.5326 5.38634 15.883 5.57879 16.1322L5.8428 16.4727C5.68982 16.7441 5.56892 17.0327 5.48997 17.3362L5.05821 17.3807ZM9.08738 16.675C9.98302 16.6848 10.701 17.4226 10.6911 18.3182C10.6813 19.2139 9.94352 19.9319 9.04787 19.922C8.15223 19.9121 7.43426 19.1744 7.4441 18.2787C7.454 17.3831 8.19173 16.6651 9.08738 16.675Z"/>
</svg>
