<svg width="23" height="23" viewBox="0 0 23 23" fill="none" xmlns="http://www.w3.org/2000/svg">
<path d="M11.4998 0C5.14871 0 0 5.14887 0 11.4998C0 17.8507 5.14871 23 11.4998 23C17.8509 23 23 17.8507 23 11.4998C23 5.14887 17.8509 0 11.4998 0ZM16.4715 13.6871H11.596C11.5795 13.6871 11.5642 13.6831 11.5479 13.6825C11.5315 13.6832 11.5163 13.6871 11.4997 13.6871C11.0605 13.6871 10.7044 13.3309 10.7044 12.8917V4.7725C10.7044 4.33327 11.0605 3.97715 11.4997 3.97715C11.939 3.97715 12.2951 4.33327 12.2951 4.7725V12.0964H16.4712C16.9104 12.0964 17.2665 12.4525 17.2665 12.8917C17.2665 13.3309 16.9107 13.6871 16.4715 13.6871Z"/>
</svg>
