<svg width="126" height="147" viewBox="0 0 126 147" fill="none" xmlns="http://www.w3.org/2000/svg">
<path d="M115.805 105.689C115.325 104.179 113.882 103.406 112.581 103.964L86.4777 115.149C85.1771 115.706 84.5119 117.382 84.9918 118.892C85.3661 120.07 86.3257 120.799 87.3469 120.799C87.6354 120.799 87.929 120.74 88.2157 120.618L114.319 109.433C115.62 108.876 116.285 107.2 115.805 105.689Z" fill="#E2EDF6"/>
<path d="M82.5243 119.95C82.0446 118.439 80.601 117.667 79.3004 118.224L78.195 118.698C76.8946 119.255 76.2292 120.931 76.7091 122.441C77.0831 123.618 78.0429 124.348 79.0642 124.348C79.3526 124.348 79.6462 124.289 79.9329 124.167L81.0384 123.693C82.3387 123.136 83.0041 121.46 82.5243 119.95Z" fill="#E2EDF6"/>
<path d="M115.805 93.8123C115.325 92.302 113.882 91.5301 112.581 92.0868L91.9524 100.926C90.6517 101.483 89.9865 103.159 90.4664 104.669C90.8407 105.847 91.8003 106.576 92.8216 106.576C93.11 106.576 93.4036 106.517 93.6903 106.395L114.319 97.5559C115.62 96.9987 116.285 95.3226 115.805 93.8123Z" fill="#E2EDF6"/>
<path d="M115.805 82.0585C115.325 80.5482 113.882 79.7763 112.581 80.333L91.9524 89.172C90.6517 89.7292 89.9865 91.4053 90.4664 92.9156C90.8407 94.093 91.8003 94.822 92.8216 94.822C93.11 94.822 93.4036 94.7637 93.6903 94.6411L114.319 85.8021C115.62 85.2449 116.285 83.5688 115.805 82.0585Z" fill="#E2EDF6"/>
<path d="M124.359 28.7281L63.869 2.80968C63.3081 2.56963 62.6919 2.56963 62.1313 2.80968L1.6412 28.7281L1.64071 28.7304C1.4426 28.8156 1.25213 28.9281 1.07494 29.0713C0.401379 29.6166 0 30.5096 0 31.4627V114.853C0 116.073 0.654856 117.165 1.64095 117.587L62.131 143.506C62.4131 143.627 62.7071 143.686 62.9998 143.686C63.2953 143.686 63.5894 143.624 63.868 143.504L63.869 143.506L124.359 117.587C125.345 117.165 126 116.074 126 114.853V31.4627C126 30.2418 125.345 29.1508 124.359 28.7281ZM60.4901 136.589L5.01982 112.822V35.6449L16.3145 40.4848V75.8C16.3145 77.0205 16.9694 78.1119 17.9555 78.5346L45.063 90.1498C45.345 90.2707 45.6391 90.3298 45.9317 90.3298C46.4381 90.3298 46.9402 90.1518 47.3671 89.8063C48.0405 89.2613 48.4418 88.3683 48.4418 87.4152V54.2505L60.4896 59.4127V136.589H60.4901ZM43.4223 52.0994V83.2324L21.3346 73.7682V42.6352L43.4223 52.0994ZM26.0754 38.4298L45.9322 29.9215L65.789 38.4298L45.9322 46.9381L26.0754 38.4298ZM63 54.2745L53.156 50.0565L73.9088 41.1641C74.8949 40.7414 75.5498 39.6503 75.5498 38.4295C75.5498 37.2087 74.8949 36.1176 73.9088 35.695L46.8011 24.08C46.2403 23.84 45.6243 23.84 45.0632 24.08L18.7974 35.3349L9.76082 31.4627L63 8.65115L116.239 31.4629L63 54.2745ZM120.98 112.822L65.5102 136.589V59.4127L120.98 35.6449V112.822Z" fill="#E2EDF6"/>
</svg>
