<svg width="67" height="132" viewBox="0 0 67 132" fill="none" xmlns="http://www.w3.org/2000/svg">
<path d="M66.5738 46.5152C66.0602 45.6205 65.2897 45.0241 64.2624 45.0241H45.2578L61.4374 4.46523C61.6943 3.57053 61.6943 2.37776 61.1805 1.48306C60.6669 0.588359 59.8964 0.290039 59.1262 0.290039H30.8762C29.3352 0.290039 28.3081 1.48306 28.3081 3.27221C28.3081 5.06136 29.3354 6.25438 30.8762 6.25438H55.0171L38.8376 46.8133C38.5807 47.708 38.5807 48.9007 39.0945 49.7954C39.6081 50.6901 40.3785 50.9884 41.149 50.9884H59.3831L23.1714 113.914L30.8762 72.4608C31.1331 71.5661 30.8762 70.6714 30.3626 70.075C29.849 69.1803 29.0785 68.882 28.3081 68.882H5.96474L23.1716 4.16691C23.6852 2.67583 22.9147 0.886422 21.374 0.588102C20.09 -0.00828034 18.549 0.886422 18.2921 2.67557L0.314741 71.2675C0.0578424 71.8639 0.0578427 72.7586 0.57164 73.6533C1.08522 74.2497 1.85569 74.8463 2.62616 74.8463H25.2262L15.4671 127.931C15.2102 129.422 15.724 130.615 17.0081 131.211C17.2647 131.51 17.7783 131.51 18.0352 131.51C18.8057 131.51 19.5762 130.913 20.0897 130.317L66.3171 49.7954C66.8307 48.6027 67.0874 47.708 66.5738 46.5152Z" fill="#E2EDF6"/>
<path d="M23.9419 27.4286C22.6579 26.8322 21.1169 27.7269 20.86 29.218L13.1557 56.0583C12.6422 57.5494 13.4126 59.3388 14.6967 59.9352C14.9536 59.9352 15.2103 60.2335 15.4672 60.2335C16.4945 60.2335 17.5217 59.3388 17.7786 58.146L25.4831 31.3057C25.9965 29.8144 25.2262 28.025 23.9419 27.4286Z" fill="#E2EDF6"/>
</svg>
