<svg width="111" height="130" viewBox="0 0 111 130" fill="none" xmlns="http://www.w3.org/2000/svg">
<path d="M110.365 1.18855C109.958 0.716518 109.406 0.451172 108.831 0.451172L55.5005 0.454445C54.3033 0.454445 53.3327 1.58179 53.3327 2.97196V10.1713L32.7828 16.5656C31.6262 16.9256 30.9398 18.3059 31.2498 19.6488L41.9004 65.8055L32.6867 76.5047C31.5141 74.5164 29.5451 73.2088 27.318 73.2088H6.50613C2.91988 73.2088 0.00244141 76.5968 0.00244141 80.7611V121.796C0.00244141 125.96 2.91988 129.348 6.50613 129.348H27.3182C30.3648 129.348 32.9278 126.902 33.6302 123.613L36.208 126.224C38.1979 128.239 40.7475 129.348 43.3878 129.348H108.832C110.029 129.348 111 128.221 111 126.831V2.96869C110.999 2.30105 110.771 1.66059 110.365 1.18855ZM29.4857 121.796C29.4857 123.184 28.5132 124.313 27.3178 124.313H6.50591C5.3105 124.313 4.33795 123.184 4.33795 121.796V80.7613C4.33795 79.3732 5.3105 78.2438 6.50591 78.2438H14.744V107.244C14.744 108.635 15.7148 109.762 16.9119 109.762C18.1091 109.762 19.0799 108.635 19.0799 107.244V78.2438H27.318C28.5134 78.2438 29.486 79.3732 29.486 80.7613V121.796H29.4857ZM35.999 20.7774L53.3327 15.3838V24.7125L51.8798 25.1647C51.3241 25.3376 50.8509 25.7593 50.5634 26.3376C50.2759 26.9158 50.1979 27.6029 50.3468 28.2479C51.1799 31.8582 49.3283 35.5824 46.2192 36.5499C45.6631 36.7231 45.189 37.1455 44.9017 37.7251C44.6145 38.3044 44.5371 38.9926 44.6873 39.6381L53.1378 75.9755H48.7867L46.5444 65.7886C46.4731 65.4644 46.3482 65.1655 46.181 64.9057L35.999 20.7774ZM53.3327 36.2576V57.5007L49.3786 40.4986C51.0304 39.5082 52.3821 38.0264 53.3327 36.2576ZM84.4787 124.313H43.3874C41.795 124.313 40.2573 123.644 39.0571 122.429L33.8217 117.127V82.3076L43.2866 71.3166L45.0032 79.1159C45.2486 80.2304 46.113 81.0098 47.1035 81.0098L89.7267 81.0128C91.4003 81.0128 92.7618 82.5938 92.7618 84.5374C92.7618 86.4809 91.4003 88.0619 89.7267 88.0619H67.8865C66.6894 88.0619 65.7186 89.1892 65.7186 90.5794C65.7186 91.9696 66.6894 93.0969 67.8865 93.0969H96.5124C98.1861 93.0969 99.5476 94.6779 99.5476 96.6215C99.5476 98.565 98.1861 100.146 96.5124 100.146H67.8865C66.6894 100.146 65.7186 101.273 65.7186 102.663C65.7186 104.054 66.6894 105.181 67.8865 105.181H91.8736C93.5473 105.181 94.9088 106.762 94.9088 108.706C94.9088 110.649 93.5473 112.23 91.8736 112.23H67.8865C66.6894 112.23 65.7186 113.357 65.7186 114.748C65.7186 116.138 66.6894 117.265 67.8865 117.265H84.4787C86.1523 117.265 87.5138 118.846 87.5138 120.79C87.5136 122.732 86.1521 124.313 84.4787 124.313ZM106.664 124.313H106.663H91.1931C91.6134 123.237 91.8495 122.045 91.8495 120.789C91.8495 119.532 91.6134 118.34 91.1931 117.264H91.8736C95.9379 117.264 99.2445 113.424 99.2445 108.705C99.2445 107.328 98.9615 106.027 98.4621 104.874C101.583 103.878 103.883 100.557 103.883 96.6209C103.883 94.7117 103.341 92.9466 102.428 91.5217V59.6147C102.428 58.2245 101.457 57.0971 100.26 57.0971C99.063 57.0971 98.0922 58.2245 98.0922 59.6147V88.262C97.5827 88.1324 97.0544 88.0619 96.512 88.0619H96.4409C96.8612 86.9861 97.0973 85.7936 97.0973 84.5374C97.0973 79.8175 93.7907 75.978 89.7264 75.978H86.2414C89.9419 74.1352 92.5409 69.864 92.5409 64.8997C92.5409 58.2562 87.8867 52.8513 82.1656 52.8513C76.4448 52.8513 71.7904 58.2562 71.7904 64.8997C71.7904 69.864 74.3896 74.1352 78.0899 75.978H66.2391V28.1094C70.112 27.1293 73.1679 23.5809 74.0117 19.0833H90.3194C91.1632 23.5809 94.2191 27.1293 98.092 28.1094V35.9364C98.092 37.3265 99.0628 38.4539 100.26 38.4539C101.457 38.4539 102.428 37.3265 102.428 35.9364V25.8618C102.428 24.4716 101.457 23.3442 100.26 23.3442C97.0412 23.3442 94.4229 20.3033 94.4229 16.5658C94.4229 15.1756 93.4521 14.0483 92.2549 14.0483H72.0764C70.8792 14.0483 69.9084 15.1756 69.9084 16.5658C69.9084 20.3036 67.2899 23.3442 64.0714 23.3442C62.8742 23.3442 61.9034 24.4716 61.9034 25.8618V75.9778H57.6689V5.48898L106.664 5.48621V124.313ZM82.1661 71.913C78.8359 71.913 76.1268 68.7669 76.1268 64.8999C76.1268 61.033 78.8361 57.8866 82.1661 57.8866C85.4961 57.8866 88.2054 61.0328 88.2054 64.8997C88.2054 68.7666 85.4963 71.913 82.1661 71.913Z" fill="#E2EDF6"/>
</svg>
