<svg width="22" height="22" viewBox="0 0 22 22" fill="none" xmlns="http://www.w3.org/2000/svg">
<path d="M15.4601 6.23179H17.3887L14.5297 1.32684C14.2994 0.929389 13.789 0.793893 13.3915 1.02875C12.9941 1.2591 12.8586 1.76946 13.0934 2.16692L15.4601 6.23179Z"/>
<path d="M8.91558 2.16692C9.14592 1.76947 9.01494 1.2591 8.61748 1.02876C8.22003 0.798416 7.70966 0.929396 7.47932 1.32685L4.62036 6.23631H6.54892L8.91558 2.16692Z"/>
<path d="M20.5818 7.73578H1.41367C0.632314 7.73578 0 8.36809 0 9.14945V10.7167C0 11.498 0.632314 12.1304 1.41367 12.1304H1.85629L3.22028 19.5239C3.39191 20.3956 4.18682 21.0866 5.01334 21.0866H5.55533H9.11435C9.47567 21.0866 9.94539 21.0866 10.4241 21.0866H10.8577H11.2913C11.7701 21.0866 12.2398 21.0866 12.6011 21.0866H16.1601H16.7021C17.5286 21.0866 18.3235 20.3956 18.4952 19.5239L19.8682 12.1258H20.5863C21.3677 12.1258 22 11.4935 22 10.7122V9.14493C21.9955 8.36809 21.3632 7.73578 20.5818 7.73578ZM7.80456 15.1248V18.3135C7.80456 18.7697 7.4342 19.1129 7.00513 19.1129C6.54896 19.1129 6.20571 18.7426 6.20571 18.3135V16.9766V13.8421C6.20571 13.386 6.57606 13.0427 7.00513 13.0427C7.4613 13.0427 7.80456 13.4131 7.80456 13.8421V15.1248ZM10.3699 15.1248V18.3135C10.3699 18.7697 9.99959 19.1129 9.57052 19.1129C9.11435 19.1129 8.77109 18.7426 8.77109 18.3135V16.9766V13.8421C8.77109 13.386 9.14145 13.0427 9.57052 13.0427C9.99959 13.0427 10.3699 13.4131 10.3699 13.8421V15.1248ZM12.9489 16.9766V18.3135C12.9489 18.7426 12.6056 19.1129 12.1495 19.1129C11.7204 19.1129 11.35 18.7697 11.35 18.3135V15.1248V13.8421C11.35 13.4131 11.7204 13.0427 12.1495 13.0427C12.5785 13.0427 12.9489 13.386 12.9489 13.8421V16.9766ZM15.5143 16.9766V18.3135C15.5143 18.7426 15.171 19.1129 14.7148 19.1129C14.2858 19.1129 13.9154 18.7697 13.9154 18.3135V15.1248V13.8421C13.9154 13.4131 14.2587 13.0427 14.7148 13.0427C15.1439 13.0427 15.5143 13.386 15.5143 13.8421V16.9766Z"/>
</svg>
