<svg viewBox="0 0 40 43" fill="none" xmlns="http://www.w3.org/2000/svg">
<path d="M39.9455 19.8501V19.7495C39.9455 17.5013 38.5087 15.6722 36.7427 15.6722H27.6015C28.777 13.0765 29.4117 10.1668 29.4492 7.15882C29.4556 6.65433 29.4524 6.13353 29.4491 5.58215C29.4469 5.22592 29.4447 4.8492 29.4447 4.44219C29.4447 2.3385 28.1035 0.626485 26.4534 0.621242C26.1456 0.617358 25.1203 0.681924 24.3135 1.75459C23.9463 2.24287 23.6926 2.85843 23.58 3.53448C23.362 4.84202 23.09 5.95838 22.7485 6.94735C21.4968 10.572 19.713 13.6 17.4467 15.9472C16.8434 16.572 16.2026 17.1481 15.5335 17.6715C15.2825 16.52 14.4523 15.6721 13.4689 15.6721H1.65916C1.23793 15.6721 0.896484 16.1069 0.896484 16.643V41.7377C0.896484 42.2738 1.23793 42.7086 1.65916 42.7086H13.4689C14.588 42.7086 15.5089 41.6106 15.6032 40.2165C17.0679 41.8274 18.9212 42.7086 20.8702 42.7086H36.7426C38.5087 42.7086 39.9455 40.8795 39.9455 38.6313C39.9455 37.3882 39.5063 36.2734 38.815 35.525C39.5063 34.7765 39.9455 33.6617 39.9455 32.4185V32.2968C39.9455 31.0537 39.5063 29.9389 38.815 29.1904C39.5063 28.4419 39.9455 27.327 39.9455 26.084V26.0629C39.9455 24.8198 39.5063 23.705 38.815 22.9565C39.5063 22.2081 39.9455 21.0932 39.9455 19.8501ZM14.0863 19.2729C14.0863 19.2745 14.0863 19.2762 14.0863 19.2778V39.9809C14.0863 40.4142 13.8094 40.7668 13.4689 40.7668H10.6898V32.3075C10.6898 31.7714 10.3483 31.3366 9.9271 31.3366C9.50587 31.3366 9.16442 31.7714 9.16442 32.3075V40.7668H2.42184V17.6141H13.4689C13.8093 17.6141 14.0863 17.9667 14.0863 18.4001V19.2729ZM34.6302 23.9274H36.7426C37.6676 23.9274 38.4201 24.8854 38.4201 26.0629V26.084C38.4201 27.2616 37.6676 28.2195 36.7426 28.2195H34.6302C34.209 28.2195 33.8676 28.6543 33.8676 29.1904C33.8676 29.7265 34.209 30.1613 34.6302 30.1613H36.7426C37.6675 30.1613 38.42 31.1192 38.42 32.2968V32.4185C38.42 33.596 37.6675 34.554 36.7425 34.554H34.6302C34.2089 34.554 33.8675 34.9888 33.8675 35.525C33.8675 36.0611 34.2089 36.4959 34.6302 36.4959H36.7425C37.6674 36.4959 38.42 37.4538 38.42 38.6313C38.42 39.8088 37.6674 40.7667 36.7425 40.7667H20.8703C19.1684 40.7667 17.5564 39.9387 16.3311 38.4349L15.6117 37.552V19.8642C16.6007 19.1628 17.5401 18.3537 18.4093 17.4535C20.8651 14.91 22.7948 11.6381 24.1448 7.72885C24.5289 6.61676 24.8321 5.3766 25.0721 3.93751C25.1266 3.6105 25.2421 3.32777 25.4153 3.09747C25.7907 2.59832 26.2815 2.56269 26.4135 2.56269C26.427 2.56269 26.4358 2.56308 26.4457 2.56308C27.2581 2.56308 27.9191 3.40603 27.9192 4.44219C27.9192 4.85464 27.9215 5.23631 27.9237 5.5972C27.9269 6.13683 27.9301 6.64656 27.924 7.12804C27.8838 10.347 27.0742 13.441 25.5826 16.0754C25.4152 16.3712 25.3919 16.7612 25.5224 17.0856C25.6529 17.4101 25.9151 17.6141 26.2013 17.6141H36.7426C37.6675 17.6141 38.42 18.572 38.42 19.7495V19.8501H38.4201C38.4201 21.0276 37.6676 21.9856 36.7426 21.9856H34.6302C34.209 21.9856 33.8676 22.4204 33.8676 22.9565C33.8676 23.4927 34.209 23.9274 34.6302 23.9274Z"/>
</svg>
