<svg  viewBox="0 0 42 46" fill="none" xmlns="http://www.w3.org/2000/svg">
<path d="M39.3998 11.5H31.2969C31.9808 11.2485 32.571 10.9856 33.0119 10.7303C35.7619 9.1425 36.7042 5.62584 35.1164 2.87581C34.0515 1.03114 32.1188 0 30.1316 0C29.1564 0 28.1674 0.248418 27.262 0.771309C25.5446 1.76336 22.5899 4.62839 20.9999 7.31095C19.4098 4.62911 16.4551 1.76336 14.7378 0.771309C13.8322 0.248418 12.844 0 11.868 0C9.88083 0 7.94802 1.03114 6.88311 2.87581C5.2953 5.62584 6.23758 9.1425 8.98761 10.7303C9.42847 10.9848 10.0187 11.2478 10.7026 11.5H2.5998C1.32941 11.5 0.299805 12.5296 0.299805 13.8V20.7C0.299805 21.9704 1.32941 23 2.5998 23V43.7C2.5998 44.9704 3.62941 46 4.8998 46H16.3998H25.5998H37.0998C38.3702 46 39.3998 44.9704 39.3998 43.7V23C40.6702 23 41.6998 21.9704 41.6998 20.7V13.8C41.6998 12.5296 40.6702 11.5 39.3998 11.5ZM28.4119 2.76305C28.937 2.46019 29.5313 2.3 30.1315 2.3C31.3635 2.3 32.5105 2.96161 33.1246 4.02581C34.076 5.67336 33.5095 7.78712 31.8619 8.73847C30.5578 9.49136 26.8724 10.5854 24.0657 10.5854C23.0146 10.5854 22.4396 10.4267 22.2042 10.3194C22.2318 8.75303 25.9532 4.18295 28.4119 2.76305ZM14.0998 43.7H4.8998V23H14.0998V43.7ZM14.0998 20.7H4.8998H2.5998V13.8H14.0998V20.7ZM10.1377 8.73847C8.49014 7.78703 7.92359 5.67336 8.87503 4.02581C9.48911 2.9617 10.6369 2.3 11.8689 2.3C12.4692 2.3 13.0634 2.46028 13.5878 2.76305C16.0464 4.18295 19.7679 8.75303 19.7947 10.3193C19.5593 10.4266 18.9843 10.5853 17.9333 10.5853C15.1272 10.5854 11.4418 9.49136 10.1377 8.73847ZM25.5998 43.7H16.3998V13.8H25.5998V43.7V43.7ZM37.0998 43.7H27.8998V23H37.0998V43.7V43.7ZM39.3998 20.7H37.0998H27.8998V13.8H39.3998V20.7Z"/>
</svg>
