<svg viewBox="0 0 51 37" fill="none" xmlns="http://www.w3.org/2000/svg">
<path d="M11.8998 26.5752C9.08713 26.5752 6.7998 28.8625 6.7998 31.6752C6.7998 34.4879 9.08713 36.7752 11.8998 36.7752C14.7125 36.7752 16.9998 34.4879 16.9998 31.6752C16.9998 28.8625 14.7124 26.5752 11.8998 26.5752ZM11.8998 35.0752C10.0247 35.0752 8.49984 33.5502 8.49984 31.6752C8.49984 29.8001 10.0248 28.2752 11.8998 28.2752C13.7749 28.2752 15.2998 29.8002 15.2998 31.6752C15.2998 33.5502 13.7749 35.0752 11.8998 35.0752Z" />
<path d="M40.8002 26.5752C37.9875 26.5752 35.7002 28.8625 35.7002 31.6752C35.7002 34.4879 37.9875 36.7752 40.8002 36.7752C43.6129 36.7752 45.9002 34.4879 45.9002 31.6752C45.9002 28.8625 43.6129 26.5752 40.8002 26.5752ZM40.8002 35.0752C38.9251 35.0752 37.4002 33.5502 37.4002 31.6752C37.4002 29.8001 38.9252 28.2752 40.8002 28.2752C42.6753 28.2752 44.2002 29.8002 44.2002 31.6752C44.2002 33.5502 42.6753 35.0752 40.8002 35.0752Z" />
<path d="M50.8646 21.8654L43.2146 9.96537C43.0582 9.72222 42.7888 9.5752 42.4997 9.5752H33.1498C32.6797 9.5752 32.2998 9.956 32.2998 10.4252V31.6751C32.2998 32.1452 32.6797 32.5251 33.1498 32.5251H36.5497V30.8251H33.9997V11.2752H42.0356L49.2997 22.5751V30.8253H45.0497V32.5252H50.1497C50.6198 32.5252 50.9997 32.1453 50.9997 31.6752V22.3252C50.9998 22.1628 50.9531 22.0022 50.8646 21.8654Z" />
<path d="M37.4001 20.6251V14.6751H44.2002V12.9751H36.5502C36.0801 12.9751 35.7002 13.3559 35.7002 13.8251V21.4751C35.7002 21.9451 36.0801 22.325 36.5502 22.325H49.3002V20.625H37.4001V20.6251Z" />
<path d="M33.15 3.625H0.849967C0.380807 3.625 0 4.00581 0 4.47497V31.675C0 32.1451 0.380807 32.525 0.849967 32.525H7.65V30.8249H1.70003V5.32493H32.3V30.8249H16.15V32.525H33.15C33.6201 32.525 34 32.1451 34 31.675V4.47497C34 4.00581 33.6201 3.625 33.15 3.625Z" />
<path d="M5.9501 27.4248H0.850098V29.1248H5.9501V27.4248Z" />
<path d="M32.3001 27.4248H17.8501V29.1248H32.3001V27.4248Z" />
<path d="M50.15 27.4248H46.75V29.1248H50.15V27.4248Z" />
<path d="M33.1499 7.0249H3.3999V8.72494H33.1499V7.0249Z" />
<path d="M12.7498 30.8252H11.0498V32.5252H12.7498V30.8252Z" />
<path d="M41.6502 30.8252H39.9502V32.5252H41.6502V30.8252Z" />
<path d="M15.2999 0.225098H3.3999V1.92513H15.2999V0.225098Z" />
<path d="M1.70003 0.225098H0V1.92513H1.70003V0.225098Z" />
</svg>
