<svg viewBox="0 0 51 51" fill="none" xmlns="http://www.w3.org/2000/svg">
<path d="M17.7104 20.6113C18.0999 20.2218 18.0999 19.5911 17.7104 19.2028C17.3221 18.8133 16.6914 18.8133 16.3019 19.2028C15.9124 19.5911 15.9124 20.2218 16.3019 20.6113C16.6914 20.9996 17.3221 20.9996 17.7104 20.6113Z"/>
<path d="M27.5717 22.02C28.7366 20.855 28.7366 18.9593 27.5717 17.7944C26.404 16.6267 24.513 16.6263 23.3453 17.7944C22.1772 18.9621 22.1772 20.8519 23.3453 22.02C24.5103 23.1849 26.4063 23.1853 27.5717 22.02ZM24.7538 19.2029C25.1433 18.8138 25.7737 18.8138 26.1631 19.2029C26.5511 19.5912 26.5511 20.2227 26.1631 20.6111C25.7744 20.9994 25.1421 20.9998 24.7538 20.6111C24.3651 20.2227 24.3636 19.5932 24.7538 19.2029Z"/>
<path d="M23.3453 29.0626C22.1772 30.2307 22.1772 32.1213 23.3453 33.2894C24.513 34.4571 26.4036 34.4575 27.5717 33.2894C28.737 32.1241 28.737 30.228 27.5717 29.0626C26.404 27.8953 24.513 27.8949 23.3453 29.0626V29.0626ZM26.1631 31.8809C25.7737 32.27 25.1429 32.27 24.7538 31.8809C24.3651 31.4922 24.3636 30.8618 24.7538 30.4716C25.1433 30.0821 25.7737 30.0825 26.1631 30.4716C26.5515 30.8599 26.5515 31.4922 26.1631 31.8809Z"/>
<path d="M17.4381 27.1456C17.5459 27.6856 18.0711 28.0347 18.6101 27.9269L32.6966 25.109C33.2359 25.0012 33.5857 24.4764 33.4779 23.9371C33.3701 23.3974 32.8452 23.048 32.3059 23.1557L18.2194 25.9736C17.6797 26.0814 17.3299 26.6063 17.4381 27.1456Z"/>
<path d="M30.2819 5.63525C30.0177 5.63525 29.7644 5.73992 29.5777 5.92669L19.1199 16.3845C18.7308 16.7736 18.7308 17.4043 19.1199 17.7934C19.509 18.1825 20.1397 18.1825 20.5284 17.7934L30.2819 8.03989L42.9595 20.7179L20.5973 43.0802L7.91928 30.4026L14.8939 23.428C15.283 23.0393 15.283 22.4085 14.8939 22.0194C14.5048 21.6307 13.874 21.6307 13.4849 22.0194L5.80647 29.6983C5.41737 30.087 5.41737 30.7178 5.80647 31.1069L19.893 45.1934C20.2821 45.5825 20.9124 45.5825 21.3015 45.1934L45.0727 21.4222C45.4618 21.0331 45.4618 20.4023 45.0727 20.0132L30.9862 5.92669C30.7994 5.73992 30.5461 5.63525 30.2819 5.63525V5.63525Z"/>
<path d="M49.2987 0.292218L45.0233 4.56725C42.5288 2.68362 39.0841 2.65288 36.6106 4.48943L33.1087 0.885983C33.1052 0.882482 33.1021 0.879369 33.0986 0.875867C31.9368 -0.285983 30.0473 -0.298434 28.8715 0.877423L0.875421 28.9941C-0.292264 30.1618 -0.292653 32.0528 0.875421 33.2209L4.82633 37.1714C3.94385 39.6971 4.58042 42.5604 6.50996 44.4892C8.43911 46.4191 11.3025 47.0553 13.8281 46.1736L17.779 50.1241C18.9467 51.2918 20.8385 51.2914 22.0039 50.1257L50.1236 22.1265C51.2917 20.9584 51.2917 19.0686 50.1236 17.9009C50.1201 17.8974 50.117 17.8943 50.1135 17.8908L46.5105 14.3897C48.3404 11.9329 48.3334 8.48665 46.4322 5.97618L50.7073 1.70115C51.0964 1.31205 51.0964 0.681317 50.7073 0.292218C50.3182 -0.0968808 49.6878 -0.0968808 49.2987 0.292218V0.292218ZM44.4397 13.7461C44.2513 13.9348 44.1463 14.1908 44.1478 14.4578C44.1498 14.7243 44.2587 14.9792 44.4498 15.1648L48.719 19.3137C49.1054 19.7044 49.1011 20.3316 48.7163 20.716L20.5969 48.7152C20.2082 49.1039 19.5759 49.1039 19.1876 48.7152L14.7697 44.2978C14.5791 44.1067 14.3238 44.0059 14.0655 44.0059C13.9223 44.0059 13.7779 44.0367 13.6425 44.1001C11.727 44.9989 9.42664 44.5892 7.91888 43.0803C6.40996 41.5725 6.00024 39.2726 6.89906 37.357C7.07726 36.9769 6.99866 36.5263 6.70178 36.2294L2.28435 31.812C1.89564 31.4233 1.89564 30.7914 2.28551 30.4011L30.2819 2.28441C30.6695 1.89725 31.2959 1.89492 31.6858 2.28013L35.8344 6.54932C36.2063 6.93219 36.8433 6.96955 37.2534 6.55983C38.9584 4.85402 41.6284 4.67192 43.5953 5.99524L42.1343 7.45631C41.0234 6.92714 39.6514 7.1213 38.7332 8.03957C37.5682 9.20492 37.5682 11.101 38.7332 12.266C39.9008 13.4337 41.7919 13.434 42.9599 12.266C43.8992 11.3267 44.0638 9.94888 43.5444 8.86368L45.005 7.403C46.3182 9.34694 46.1669 12.0193 44.4397 13.7461V13.7461ZM41.551 9.44811C41.9397 9.83682 41.9413 10.4672 41.551 10.8574C41.1619 11.2465 40.5312 11.2465 40.1421 10.8574C39.7534 10.4687 39.7534 9.83643 40.1417 9.44811C40.5304 9.06018 41.1627 9.0594 41.551 9.44811V9.44811Z"/>
</svg>
