<svg width="22" height="22" viewBox="0 0 22 22" fill="none" xmlns="http://www.w3.org/2000/svg">
<path d="M14.1 11.3C13.9 11.1 13.9 10.8 14.1 10.6L21.6 3.1C21.8 2.9 21.9 2.6 21.9 2.4C21.9 2.2 21.8 1.9 21.6 1.7L20.2 0.3C20 0.1 19.7 0 19.5 0C19.2 0 19 0.1 18.8 0.3L11.3 7.8C11.1 8 10.8 8 10.6 7.8L3.1 0.3C2.9 0.1 2.6 0 2.4 0C2.2 0 1.9 0.1 1.7 0.3L0.3 1.7C0.1 1.9 0 2.2 0 2.4C0 2.6 0.1 2.9 0.3 3.1L7.8 10.6C8 10.8 8 11.1 7.8 11.3L0.3 18.8C0.1 19 0 19.3 0 19.5C0 19.7 0.1 20 0.3 20.2L1.7 21.6C1.9 21.8 2.2 21.9 2.4 21.9C2.6 21.9 2.9 21.8 3.1 21.6L10.6 14.1C10.8 13.9 11.1 13.9 11.3 14.1L18.8 21.6C19 21.8 19.3 21.9 19.5 21.9C19.7 21.9 20 21.8 20.2 21.6L21.6 20.2C21.8 20 21.9 19.7 21.9 19.5C21.9 19.3 21.8 19 21.6 18.8L14.1 11.3Z"/>
</svg>
