<svg width="20" height="18" viewBox="0 0 20 18" fill="none" xmlns="http://www.w3.org/2000/svg">
<path d="M0.219601 1.07157C0.36607 0.925142 0.540064 0.851685 0.74041 0.851685H12.5925C12.7931 0.851685 12.9668 0.925142 13.1133 1.07157C13.2598 1.2182 13.3332 1.39191 13.3332 1.5925V3.81478H15.1851C15.3935 3.81478 15.6193 3.86493 15.8623 3.96522C16.1054 4.06568 16.3002 4.18892 16.4467 4.33555L18.7385 6.62727C18.8388 6.72757 18.9255 6.84322 18.9989 6.97449C19.0722 7.10543 19.1262 7.2234 19.161 7.32738C19.1956 7.43165 19.2208 7.57423 19.2361 7.75572C19.2514 7.93714 19.2613 8.07023 19.2651 8.15516C19.2688 8.23996 19.2688 8.38663 19.2651 8.59501C19.2612 8.80346 19.2593 8.93837 19.2593 9.0002V12.7039C19.4598 12.7039 19.6334 12.7771 19.7801 12.9239C19.9267 13.0702 20 13.244 20 13.4446C20 13.5602 19.9847 13.6626 19.9538 13.7512C19.9229 13.84 19.8708 13.9113 19.7974 13.9654C19.7241 14.0195 19.6604 14.0638 19.6065 14.0986C19.5524 14.1332 19.4617 14.1563 19.3344 14.1679C19.2071 14.1796 19.1204 14.1874 19.074 14.1912C19.0277 14.1949 18.9294 14.1949 18.779 14.1912C18.6284 14.1874 18.5416 14.1854 18.5184 14.1854H17.7777C17.7777 15.0031 17.4883 15.7015 16.9097 16.2802C16.331 16.8589 15.6327 17.1483 14.8147 17.1483C13.9969 17.1483 13.2985 16.8589 12.7199 16.2802C12.1411 15.7015 11.8519 15.0031 11.8519 14.1854H7.40729C7.40729 15.0031 7.11788 15.7015 6.53927 16.2802C5.96073 16.8589 5.26236 17.1483 4.4444 17.1483C3.62628 17.1483 2.92835 16.8589 2.34953 16.2802C1.77075 15.7015 1.48151 15.0031 1.48151 14.1854C1.45848 14.1854 1.3716 14.1874 1.22124 14.1912C1.07072 14.1949 0.972334 14.1949 0.926037 14.1912C0.87966 14.1874 0.792704 14.1796 0.665491 14.1679C0.538239 14.1563 0.447676 14.1333 0.393555 14.0986C0.339436 14.0639 0.275949 14.0195 0.202656 13.9654C0.12928 13.9113 0.0771065 13.84 0.0463371 13.7512C0.0151215 13.6625 0 13.5602 0 13.4446V1.59262C-0.000162125 1.39199 0.0730915 1.21848 0.219601 1.07157ZM13.7733 15.2271C14.0664 15.5202 14.4137 15.6671 14.8149 15.6671C15.2162 15.6671 15.5634 15.5203 15.8566 15.2271C16.1499 14.934 16.2964 14.5867 16.2964 14.1855C16.2964 13.7843 16.1497 13.4367 15.8566 13.1436C15.5635 12.8506 15.2162 12.7038 14.8149 12.7038C14.4137 12.7038 14.0664 12.8505 13.7733 13.1436C13.48 13.4367 13.3333 13.7843 13.3333 14.1855C13.3333 14.5867 13.48 14.934 13.7733 15.2271ZM13.3333 8.2593H17.7779V7.9122C17.7779 7.81187 17.7432 7.72698 17.6738 7.6575L15.4168 5.40059C15.3474 5.33111 15.2624 5.29649 15.1621 5.29649H13.3333V8.2593ZM3.40282 15.2271C3.69592 15.5202 4.04322 15.6671 4.4444 15.6671C4.84574 15.6671 5.19316 15.5203 5.48626 15.2271C5.7794 14.934 5.92607 14.5867 5.92607 14.1855C5.92607 13.7843 5.77944 13.4367 5.48626 13.1436C5.19316 12.8506 4.84574 12.7038 4.4444 12.7038C4.04322 12.7038 3.69592 12.8505 3.40282 13.1436C3.10968 13.4369 2.96289 13.7843 2.96289 14.1855C2.96289 14.5867 3.1094 14.934 3.40282 15.2271Z"/>
</svg>
