<svg width="16" height="14" viewBox="0 0 16 14" fill="none" xmlns="http://www.w3.org/2000/svg">
<path d="M15.711 2.56112L14.3071 1.15728C14.1146 0.964641 13.8805 0.868286 13.6053 0.868286C13.3299 0.868286 13.0958 0.964641 12.9033 1.15728L6.13161 7.93922L3.09675 4.89402C2.90405 4.70131 2.67008 4.60507 2.3949 4.60507C2.11954 4.60507 1.88558 4.70131 1.69287 4.89402L0.289027 6.2979C0.0963182 6.49057 0 6.72461 0 6.99993C0 7.27504 0.0963182 7.50929 0.289027 7.70193L4.02573 11.4386L5.42969 12.8424C5.62229 13.0352 5.85632 13.1314 6.13161 13.1314C6.40679 13.1314 6.64082 13.0349 6.83353 12.8424L8.23745 11.4386L15.711 3.96508C15.9035 3.77237 16 3.53837 16 3.26305C16.0001 2.98787 15.9035 2.75383 15.711 2.56112Z"/>
</svg>
