<svg width="26" height="27" viewBox="0 0 26 27" fill="none" xmlns="http://www.w3.org/2000/svg">
<path d="M12.9994 16.2026C14.4337 16.2026 15.603 14.9905 15.603 13.5C15.603 12.9116 15.4176 12.3684 15.1108 11.9246C14.6379 11.2438 13.8692 10.7974 13.001 10.7974C12.1323 10.7974 11.3641 11.2433 10.8902 11.9241C10.5823 12.3678 10.3985 12.9111 10.398 13.4994C10.3964 14.9899 11.5646 16.2026 12.9994 16.2026Z" fill="#B2C2CD"/>
<path d="M18.6825 10.1939V7.92846V7.59131L18.3562 7.5924L16.1758 7.59947L16.1842 10.2026L18.6825 10.1939Z" fill="#B2C2CD"/>
<path d="M13 0C5.83183 0 0 6.05613 0 13.5C0 20.9433 5.83183 27 13 27C20.1676 27 26 20.9433 26 13.5C26 6.05613 20.1687 0 13 0ZM20.3933 11.9247V18.2108C20.3933 19.8481 19.1115 21.1788 17.5358 21.1788H8.46419C6.88802 21.1788 5.60666 19.8481 5.60666 18.2108V11.9247V8.79028C5.60666 7.15349 6.88802 5.82285 8.46419 5.82285H17.5353C19.1115 5.82285 20.3933 7.15349 20.3933 8.79028V11.9247Z" fill="#B2C2CD"/>
<path d="M17.0443 13.4999C17.0443 15.8148 15.2304 17.6996 13.0002 17.6996C10.77 17.6996 8.95661 15.8148 8.95661 13.4999C8.95661 12.9431 9.06343 12.4107 9.25404 11.9246H7.04688V18.2107C7.04688 19.0231 7.68206 19.6811 8.46386 19.6811H17.535C18.3157 19.6811 18.9519 19.0231 18.9519 18.2107V11.9246H16.7437C16.9359 12.4107 17.0443 12.9431 17.0443 13.4999Z" fill="#B2C2CD"/>
</svg>
