<svg width="158" height="162" viewBox="0 0 158 162" fill="none" xmlns="http://www.w3.org/2000/svg">
<path d="M157.183 38.7738C157.183 38.1631 157.039 37.5524 156.752 36.9757C156.178 35.8222 155.066 35.0418 153.846 34.8043L80.7583 1.28408C79.5742 0.741244 78.1749 0.741244 76.9909 1.28408L3.18545 35.1097C1.75025 35.7543 0.817366 37.1114 0.745605 38.6381V38.6721C0.745605 38.706 0.745605 38.7399 0.745605 38.8078V123.694C0.745605 125.255 1.67849 126.68 3.18545 127.358L76.9909 161.184C77.0267 161.184 77.0267 161.184 77.0626 161.218C77.1703 161.252 77.2779 161.286 77.3855 161.353C77.4214 161.353 77.4573 161.387 77.5291 161.387C77.6367 161.421 77.7443 161.455 77.852 161.489C77.8879 161.489 77.9237 161.523 77.9596 161.523C78.0673 161.557 78.2108 161.557 78.3184 161.591C78.3543 161.591 78.3902 161.591 78.4261 161.591C78.5696 161.591 78.749 161.625 78.8925 161.625C79.036 161.625 79.2154 161.625 79.3589 161.591C79.3948 161.591 79.4307 161.591 79.4666 161.591C79.5742 161.591 79.7177 161.557 79.8254 161.523C79.8613 161.523 79.8971 161.489 79.933 161.489C80.0407 161.455 80.1483 161.421 80.2559 161.387C80.2918 161.387 80.3277 161.353 80.3995 161.353C80.5071 161.32 80.6147 161.286 80.7224 161.218C80.7583 161.218 80.7583 161.218 80.7941 161.184L154.815 127.256C156.286 126.578 157.255 125.153 157.255 123.592V38.8756C157.183 38.8417 157.183 38.8078 157.183 38.7738ZM78.8566 9.46058L142.867 38.8078L119.294 49.6306L55.2834 20.2834L78.8566 9.46058ZM78.8566 68.1549L14.8465 38.8078L45.4164 24.7958L109.426 54.1429L78.8566 68.1549ZM9.35683 45.3557L74.551 75.2458V151.006L9.35683 121.116V45.3557ZM83.1622 151.006V75.2458L113.768 61.1998V81.0134C113.768 83.2526 115.706 85.0847 118.074 85.0847C120.442 85.0847 122.379 83.2526 122.379 81.0134V57.2303L148.572 45.22V120.98L83.1622 151.006Z" fill="#115994"/>
</svg>
