<svg width="19" height="26" viewBox="0 0 19 26" fill="none" xmlns="http://www.w3.org/2000/svg">
<path d="M11.1996 5.82947L15.0995 16.648C15.8489 18.727 14.772 21.018 12.693 21.7675C10.6139 22.5169 8.32297 21.44 7.57351 19.361L3.33449 7.6017C2.86651 6.30348 3.54032 4.87003 4.83855 4.40204C6.13677 3.93405 7.57022 4.60787 8.03821 5.90609L11.599 15.7839C11.7855 16.3013 11.5148 16.8772 10.9974 17.0638C10.48 17.2503 9.90402 16.9795 9.7175 16.4621L6.49584 7.52508L5.08473 8.03376L8.30638 16.9708C8.77437 18.269 10.2078 18.9429 11.506 18.4749C12.8043 18.0069 13.4781 16.5734 13.0101 15.2752L9.44932 5.39741C8.69986 3.31837 6.40891 2.24147 4.32986 2.99093C2.25082 3.74038 1.17392 6.03134 1.92338 8.11038L6.1624 19.8697C7.19333 22.7295 10.3418 24.2095 13.2017 23.1786C16.0615 22.1477 17.5415 18.9992 16.5106 16.1393L12.6107 5.32079L11.1996 5.82947Z" fill="#FE6313"/>
</svg>
