<svg width="22" height="24" viewBox="0 0 22 24" fill="none" xmlns="http://www.w3.org/2000/svg">
<path d="M7.9502 22.3335H14.0439V23.9999H7.9502V22.3335Z" />
<path d="M21.0259 20.9273L17.7152 16.194H19.387L15.8658 11.1599H17.4449L14.2598 6.60608H15.6181L10.9974 0L6.37659 6.60608H7.73486L4.54956 11.1599H6.12885L2.60773 16.194H4.27948L0.96875 20.9273H21.0259ZM14.0912 13.9786C14.4867 13.9786 14.7797 14.302 14.7969 14.6843C14.8139 15.0656 14.4603 15.39 14.0912 15.39C13.6955 15.39 13.4025 15.0668 13.3855 14.6843C13.3683 14.3033 13.722 13.9786 14.0912 13.9786ZM11.8199 6.49402C12.2156 6.49402 12.5086 6.81738 12.5256 7.19971C12.5427 7.58075 12.1891 7.9054 11.8199 7.9054C11.4243 7.9054 11.1313 7.58203 11.1143 7.19971C11.0972 6.81866 11.4508 6.49402 11.8199 6.49402ZM9.28192 10.6697C9.67761 10.6697 9.97058 10.9931 9.98761 11.3754C10.0046 11.7565 9.65106 12.0811 9.28192 12.0811C8.88623 12.0811 8.59326 11.7578 8.57623 11.3754C8.5592 10.9944 8.91278 10.6697 9.28192 10.6697ZM7.24487 17.2251C7.22766 16.8441 7.58142 16.5194 7.95056 16.5194C8.34607 16.5194 8.63904 16.8428 8.65625 17.2251C8.67328 17.6063 8.3197 17.9308 7.95056 17.9308C7.55487 17.9308 7.2619 17.6076 7.24487 17.2251Z"/>
</svg>
