<svg width="27" height="27" viewBox="0 0 27 27" fill="none" xmlns="http://www.w3.org/2000/svg">
<path d="M13.5127 11.1886C14.8017 11.1839 15.8284 10.1484 15.8237 8.85653C15.819 7.56412 14.7901 6.53577 13.5005 6.53467C12.2001 6.53329 11.1615 7.58069 11.1715 8.8847C11.1811 10.1719 12.2194 11.1933 13.5127 11.1886Z" fill="#B2C2CD"/>
<path d="M13.5 0C6.04413 0 0 6.04441 0 13.5C0 20.9556 6.04413 27 13.5 27C20.9559 27 27 20.9556 27 13.5C27 6.04441 20.9559 0 13.5 0ZM13.5193 4.10538C16.1489 4.11256 18.2595 6.26345 18.2459 8.92202C18.2327 11.5193 16.0876 13.6243 13.4624 13.6155C10.8641 13.6066 8.73308 11.4524 8.74855 8.84992C8.76319 6.21898 10.8953 4.0982 13.5193 4.10538ZM18.8453 15.4838C18.2639 16.0807 17.5639 16.5127 16.7867 16.814C16.0519 17.0988 15.2468 17.2422 14.4496 17.3377C14.5703 17.4687 14.627 17.533 14.7021 17.6081C15.7837 18.6956 16.8707 19.7775 17.9487 20.868C18.3161 21.2398 18.3926 21.7005 18.1904 22.1323C17.9697 22.6046 17.4745 22.9151 16.9886 22.8816C16.6809 22.8604 16.4409 22.7076 16.2279 22.493C15.4114 21.6715 14.5794 20.8647 13.7801 20.0278C13.5467 19.7842 13.4351 19.8306 13.2293 20.0421C12.4081 20.8879 11.5734 21.7202 10.734 22.548C10.357 22.9198 9.90838 22.9872 9.47085 22.7745C9.00598 22.5496 8.71043 22.0748 8.73308 21.5972C8.74911 21.2752 8.90765 21.0282 9.12918 20.8078C10.2001 19.7391 11.2676 18.6672 12.3355 17.596C12.4065 17.525 12.4722 17.4496 12.5752 17.3391C11.1188 17.1869 9.80535 16.8284 8.68088 15.9492C8.54111 15.8398 8.39721 15.7343 8.27015 15.6117C7.77766 15.1391 7.72822 14.5974 8.1174 14.04C8.45079 13.5627 9.00985 13.4351 9.59128 13.7094C9.70398 13.7621 9.81115 13.829 9.9139 13.8997C12.0093 15.3396 14.888 15.3791 16.9916 13.964C17.1999 13.8049 17.4228 13.674 17.6811 13.608C18.1827 13.4787 18.6511 13.6635 18.9202 14.1027C19.2281 14.6046 19.2246 15.094 18.8453 15.4838Z" fill="#B2C2CD"/>
</svg>
