<svg width="23" height="23" viewBox="0 0 23 23" fill="none" xmlns="http://www.w3.org/2000/svg">
<path d="M6.55758 6.55807C6.36505 6.7506 6.05271 6.7506 5.86044 6.55807L0.144397 0.841799C-0.0481334 0.649269 -0.0481334 0.337191 0.144397 0.144398C0.336665 -0.0481326 0.649007 -0.0481326 0.841537 0.144398L6.55758 5.86067C6.75034 6.0532 6.75034 6.36554 6.55758 6.55807Z"/>
<path d="M1.61793 10.8814L2.24483 3.98827L3.96576 5.70921C3.86568 6.34817 4.06066 7.02464 4.55297 7.51692C5.37116 8.3351 6.69794 8.33537 7.51613 7.51692C8.33432 6.69873 8.33432 5.37172 7.51613 4.55353C7.02385 4.06125 6.34787 3.86651 5.70914 3.96632L3.98771 2.2449L10.8811 1.61796C11.1523 1.59357 11.4205 1.69046 11.6133 1.88321L22.7313 13.0012C23.0894 13.3596 23.0897 13.9404 22.7313 14.2986L20.2582 16.7719L19.0379 15.5517L15.5517 19.0379L16.7717 20.2579L14.2986 22.731C13.9402 23.0894 13.3597 23.0894 13.0015 22.731L1.88273 11.613C1.69065 11.4203 1.5938 11.1521 1.61793 10.8814Z"/>
</svg>
