<svg width="22" height="14" viewBox="0 0 22 14" fill="none" xmlns="http://www.w3.org/2000/svg">
<path d="M21.8834 12.0599C21.8567 12.0025 21.8319 11.9549 21.8088 11.9167C21.4271 11.2292 20.6977 10.3854 19.621 9.38506L19.5983 9.36215L19.5869 9.35092L19.5754 9.33941H19.5638C19.0751 8.87357 18.7657 8.56036 18.6361 8.4C18.399 8.09453 18.3459 7.78533 18.4755 7.47203C18.567 7.23532 18.9109 6.73543 19.5064 5.97167C19.8196 5.5669 20.0677 5.24249 20.2509 4.99808C21.572 3.24164 22.1448 2.11925 21.9691 1.63047L21.9009 1.51625C21.855 1.44748 21.7367 1.38458 21.546 1.32721C21.3548 1.26995 21.1105 1.26049 20.8127 1.29864L17.5138 1.32143C17.4604 1.30249 17.3841 1.30426 17.2847 1.32721C17.1854 1.35015 17.1357 1.36167 17.1357 1.36167L17.0783 1.39035L17.0327 1.42482C16.9945 1.4476 16.9525 1.48768 16.9067 1.54498C16.8611 1.60207 16.8229 1.66907 16.7924 1.74541C16.4333 2.66941 16.0249 3.5285 15.5666 4.32263C15.2841 4.79616 15.0246 5.20655 14.7876 5.55402C14.5509 5.90138 14.3524 6.1573 14.1921 6.32135C14.0317 6.48556 13.8868 6.61712 13.7568 6.71649C13.6269 6.81591 13.5277 6.85792 13.4591 6.84255C13.3903 6.82718 13.3255 6.81194 13.2642 6.79669C13.1573 6.72793 13.0714 6.63441 13.0066 6.51606C12.9415 6.3977 12.8977 6.24874 12.8748 6.06928C12.852 5.88971 12.8385 5.73525 12.8347 5.60538C12.8311 5.47567 12.8328 5.2922 12.8405 5.0555C12.8484 4.81867 12.852 4.65843 12.852 4.57442C12.852 4.28419 12.8577 3.96921 12.869 3.6294C12.8806 3.28958 12.8899 3.02034 12.8977 2.82199C12.9055 2.62343 12.9091 2.41337 12.9091 2.19191C12.9091 1.97045 12.8957 1.79677 12.869 1.67071C12.8427 1.54482 12.8023 1.42261 12.7491 1.30414C12.6955 1.18578 12.6171 1.09423 12.5142 1.02924C12.4112 0.964322 12.283 0.912808 12.1305 0.874534C11.7258 0.782941 11.2103 0.733393 10.584 0.72569C9.16376 0.710444 8.25115 0.802158 7.84643 1.00071C7.68607 1.0846 7.54095 1.19922 7.41121 1.34422C7.27372 1.51228 7.25454 1.60399 7.3538 1.61908C7.81204 1.68772 8.13645 1.85193 8.32738 2.11155L8.39619 2.24912C8.44971 2.34837 8.50315 2.5241 8.55663 2.77605C8.61003 3.028 8.64449 3.30672 8.65965 3.61203C8.69777 4.16957 8.69777 4.64684 8.65965 5.04386C8.62142 5.44105 8.58531 5.75025 8.55085 5.97171C8.51639 6.19317 8.46487 6.37263 8.39619 6.51004C8.32738 6.64749 8.2816 6.7315 8.25866 6.76199C8.23575 6.79248 8.21665 6.8117 8.20149 6.81924C8.10223 6.85727 7.999 6.87665 7.89216 6.87665C7.78516 6.87665 7.65542 6.82313 7.50272 6.71617C7.35006 6.60921 7.19163 6.4623 7.02742 6.27518C6.86321 6.08802 6.67802 5.82648 6.47176 5.49051C6.26567 5.15455 6.05183 4.75749 5.83037 4.29932L5.64714 3.96705C5.5326 3.75329 5.37613 3.44204 5.17758 3.03358C4.9789 2.62496 4.8033 2.2297 4.65064 1.84788C4.58962 1.68752 4.49795 1.56544 4.37578 1.48143L4.31845 1.44696C4.28034 1.41647 4.21916 1.3841 4.13523 1.34959C4.05117 1.31513 3.96347 1.29042 3.87176 1.27521L0.733229 1.298C0.412512 1.298 0.194902 1.37066 0.0803198 1.51577L0.0344629 1.58441C0.0115545 1.62265 0 1.68371 0 1.76776C0 1.85177 0.0229084 1.95488 0.0687653 2.07696C0.526933 3.15378 1.02518 4.19228 1.56351 5.19263C2.10184 6.19297 2.56963 6.99878 2.96662 7.60932C3.36368 8.2203 3.76841 8.79694 4.1808 9.33896C4.59319 9.88118 4.86617 10.2287 4.99973 10.3813C5.13345 10.5343 5.23848 10.6486 5.31483 10.7249L5.60124 10.9998C5.78451 11.1831 6.05363 11.4026 6.40873 11.6584C6.76391 11.9143 7.15713 12.1663 7.58858 12.4147C8.0201 12.6626 8.52212 12.865 9.09491 13.0215C9.66762 13.1782 10.225 13.2411 10.7673 13.2107H12.0846C12.3517 13.1877 12.5541 13.1036 12.6917 12.9586L12.7373 12.9012C12.7679 12.8557 12.7966 12.7849 12.8231 12.6896C12.8499 12.5941 12.8632 12.489 12.8632 12.3746C12.8554 12.0463 12.8804 11.7504 12.9375 11.487C12.9946 11.2236 13.0597 11.0251 13.1324 10.8914C13.2052 10.7578 13.2873 10.645 13.3786 10.5536C13.4702 10.462 13.5354 10.4066 13.5737 10.3875C13.6117 10.3682 13.6421 10.3552 13.665 10.3474C13.8483 10.2863 14.0639 10.3454 14.3124 10.5251C14.5606 10.7045 14.7934 10.9261 15.0112 11.1894C15.2288 11.453 15.4903 11.7488 15.7957 12.0771C16.1013 12.4055 16.3685 12.6496 16.5975 12.8102L16.8265 12.9477C16.9795 13.0394 17.178 13.1234 17.4224 13.1997C17.6664 13.276 17.8801 13.2951 18.0637 13.257L20.9959 13.2112C21.2859 13.2112 21.5116 13.1632 21.6717 13.0679C21.8321 12.9725 21.9274 12.8673 21.9581 12.753C21.9888 12.6385 21.9904 12.5085 21.9639 12.3633C21.9368 12.2184 21.91 12.1171 21.8834 12.0599Z" fill="white"/>
</svg>
