<svg width="50" height="50" viewBox="0 0 50 50" fill="none" xmlns="http://www.w3.org/2000/svg">
<path d="M49.1667 36.6667H46.6667V5.83333C46.663 2.61312 44.0535 0.0036621 40.8333 0H37.5C34.2798 0.0036621 31.6703 2.61312 31.6667 5.83333H18.3333C18.3333 4.45272 17.2139 3.33333 15.8333 3.33333H10.8333C9.45272 3.33333 8.33333 4.45272 8.33333 5.83333V16.6667C8.33333 17.1269 8.70646 17.5 9.16667 17.5H10.8333V20H8.33333C7.87313 20 7.5 20.3731 7.5 20.8333V33.3333C7.5 33.5958 7.6237 33.8428 7.83325 33.9998L11.1666 36.4998C11.4193 36.6895 11.757 36.72 12.0394 36.5788C12.3218 36.4376 12.5 36.1491 12.5 35.8333V29.1667H14.1667V35.8333C14.1667 36.1491 14.3449 36.4376 14.6273 36.5788C14.9097 36.72 15.2474 36.6895 15.5001 36.4998L18.8334 33.9998C19.043 33.8428 19.1667 33.5958 19.1667 33.3333V20.8333C19.1667 20.3731 18.7935 20 18.3333 20H15.8333V17.5H17.5C17.9602 17.5 18.3333 17.1269 18.3333 16.6667V14.1667H31.6667V36.6667H25.8333C25.3731 36.6667 25 37.0398 25 37.5V40H0.833333C0.373128 40 0 40.3731 0 40.8333V47.5C0 47.9602 0.373128 48.3333 0.833333 48.3333H25V49.1667C25 49.6269 25.3731 50 25.8333 50H49.1667C49.6269 50 50 49.6269 50 49.1667V37.5C50 37.0398 49.6269 36.6667 49.1667 36.6667ZM17.5 32.9167L15.8333 34.1667V28.3333C15.8333 27.8731 15.4602 27.5 15 27.5H11.6667C11.2065 27.5 10.8333 27.8731 10.8333 28.3333V34.1667L9.16667 32.9167V25.8333H17.5V32.9167ZM17.5 24.1667H9.16667V21.6667H17.5V24.1667ZM14.1667 20H12.5V17.5H14.1667V20ZM16.6667 15.8333H10V5.83333C10 5.37313 10.3731 5 10.8333 5H15.8333C16.2935 5 16.6667 5.37313 16.6667 5.83333V15.8333ZM18.3333 12.5V7.5H31.6667V12.5H18.3333ZM33.3333 5.83333C33.3362 3.53312 35.1998 1.66951 37.5 1.66667H40.8333C43.1335 1.66951 44.9972 3.53312 45 5.83333V36.6667H33.3333V5.83333ZM1.66667 41.6667H25V43.3333H1.66667V41.6667ZM1.66667 46.6667V45H25V46.6667H1.66667ZM26.6667 48.3333V38.3333H33.3333V40.8333C33.3333 41.2935 33.7065 41.6667 34.1667 41.6667C34.6269 41.6667 35 41.2935 35 40.8333V38.3333H36.6667V40.8333C36.6667 41.2935 37.0398 41.6667 37.5 41.6667C37.9602 41.6667 38.3333 41.2935 38.3333 40.8333V38.3333H40V40.8333C40 41.2935 40.3731 41.6667 40.8333 41.6667C41.2935 41.6667 41.6667 41.2935 41.6667 40.8333V38.3333H43.3333V40.8333C43.3333 41.2935 43.7065 41.6667 44.1667 41.6667C44.6269 41.6667 45 41.2935 45 40.8333V38.3333H48.3333V45H37.5C37.0398 45 36.6667 45.3731 36.6667 45.8333C36.6667 46.2935 37.0398 46.6667 37.5 46.6667H48.3333V48.3333H26.6667Z" fill="#1963AE"/>
<path d="M34.1667 45H33.3333C32.8731 45 32.5 45.3731 32.5 45.8333C32.5 46.2935 32.8731 46.6667 33.3333 46.6667H34.1667C34.6269 46.6667 35 46.2935 35 45.8333C35 45.3731 34.6269 45 34.1667 45Z" fill="#1963AE"/>
<path d="M39.1668 10.0002C41.0077 10.0002 42.5002 8.50765 42.5002 6.66683C42.5002 4.82601 41.0077 3.3335 39.1668 3.3335C37.326 3.3335 35.8335 4.82601 35.8335 6.66683C35.8335 8.50765 37.326 10.0002 39.1668 10.0002ZM39.1668 5.00016C40.0872 5.00016 40.8335 5.74642 40.8335 6.66683C40.8335 7.58724 40.0872 8.3335 39.1668 8.3335C38.2464 8.3335 37.5002 7.58724 37.5002 6.66683C37.5002 5.74642 38.2464 5.00016 39.1668 5.00016Z" fill="#1963AE"/>
<path d="M12.4998 6.6665C12.0396 6.6665 11.6665 7.03963 11.6665 7.49984V12.4998C11.6665 12.96 12.0396 13.3332 12.4998 13.3332C12.96 13.3332 13.3332 12.96 13.3332 12.4998V7.49984C13.3332 7.03963 12.96 6.6665 12.4998 6.6665Z" fill="#1963AE"/>
</svg>
