<svg width="19" height="19" viewBox="0 0 19 19" fill="none" xmlns="http://www.w3.org/2000/svg">
<path d="M9.50028 10.0614C11.8529 10.0614 13.7603 7.82897 13.7603 5.07516C13.7603 1.25639 11.853 0.0889893 9.50028 0.0889893C7.14746 0.0889893 5.24023 1.25639 5.24023 5.07516C5.24028 7.82897 7.1475 10.0614 9.50028 10.0614Z"/>
<path d="M18.9071 17.4005L16.7579 12.5589C16.6596 12.3374 16.4869 12.1536 16.2719 12.0417L12.9364 10.3054C12.8629 10.2671 12.7738 10.2746 12.7077 10.3246C11.7643 11.0382 10.6551 11.4153 9.50005 11.4153C8.34486 11.4153 7.23574 11.0382 6.29234 10.3246C6.22603 10.2746 6.13697 10.2671 6.06341 10.3054L2.72814 12.0417C2.5131 12.1536 2.34059 12.3373 2.24219 12.5589L0.092946 17.4005C-0.0552313 17.7342 -0.0248622 18.1161 0.174209 18.4223C0.373188 18.7284 0.709942 18.9111 1.07507 18.9111H17.9249C18.29 18.9111 18.6269 18.7283 18.8258 18.4222C19.0248 18.1161 19.0553 17.7341 18.9071 17.4005Z"/>
</svg>
