<svg width="19" height="19" viewBox="0 0 19 19" fill="none" xmlns="http://www.w3.org/2000/svg">
<g clip-path="url(#clip0)">
<path d="M9.50004 10.0614C11.8527 10.0614 13.7601 7.82894 13.7601 5.07513C13.7601 1.25636 11.8528 0.0889587 9.50004 0.0889587C7.14721 0.0889587 5.23999 1.25636 5.23999 5.07513C5.24004 7.82894 7.14726 10.0614 9.50004 10.0614Z"/>
<path d="M18.9071 17.4004L16.7579 12.5588C16.6596 12.3373 16.4869 12.1535 16.2719 12.0416L12.9364 10.3053C12.8629 10.2671 12.7738 10.2745 12.7077 10.3246C11.7643 11.0381 10.6551 11.4153 9.50005 11.4153C8.34486 11.4153 7.23574 11.0381 6.29234 10.3246C6.22603 10.2745 6.13697 10.2671 6.06341 10.3053L2.72814 12.0416C2.5131 12.1535 2.34059 12.3372 2.24219 12.5588L0.092946 17.4004C-0.0552313 17.7342 -0.0248622 18.1161 0.174209 18.4222C0.373188 18.7283 0.709942 18.911 1.07507 18.911H17.9249C18.29 18.911 18.6269 18.7282 18.8258 18.4222C19.0248 18.1161 19.0553 17.734 18.9071 17.4004Z"/>
</g>
<defs>
<clipPath id="clip0">
<rect width="19" height="19" fill="white"/>
</clipPath>
</defs>
</svg>
