<svg width="24" height="24" viewBox="0 0 24 24" fill="none" xmlns="http://www.w3.org/2000/svg">
<path d="M23.8456 13.0686L22.082 10.2701C21.9423 10.0482 21.8952 9.78025 21.9505 9.5241L22.6507 6.29109C22.7599 5.78725 22.4684 5.28294 21.9776 5.12545L18.8277 4.1153C18.5781 4.03518 18.3697 3.8604 18.2475 3.62852L16.7057 0.70198C16.4656 0.245747 15.9182 0.0466496 15.4409 0.241472L12.3784 1.49253C12.1358 1.59143 11.8638 1.59143 11.6212 1.49253L8.5592 0.241708C8.08191 0.0468849 7.53454 0.245982 7.29414 0.702215L5.75239 3.62848C5.63019 3.86036 5.42184 4.03514 5.17219 4.11526L2.02233 5.12541C1.53127 5.2829 1.24006 5.78725 1.34923 6.29105L2.04911 9.52406C2.10472 9.78021 2.05739 10.0482 1.91766 10.27L0.154258 13.0686C-0.120681 13.5048 -0.0192702 14.0783 0.38814 14.3943L3.0024 16.4208C3.20973 16.5816 3.34569 16.817 3.38126 17.0769L3.82926 20.3543C3.89887 20.8651 4.34534 21.2395 4.8602 21.2195L8.16559 21.0915C8.42751 21.0812 8.68292 21.1744 8.87751 21.3504L11.327 23.573C11.7089 23.9193 12.2916 23.9193 12.6732 23.573L15.1229 21.3504C15.317 21.1741 15.5727 21.0812 15.8348 21.0915L19.14 21.2195C19.6553 21.2395 20.1013 20.8649 20.1711 20.3543L20.6191 17.0769C20.6547 16.817 20.7907 16.5816 20.9978 16.4208L23.612 14.3943C24.0194 14.0783 24.1206 13.5048 23.8456 13.0686ZM9.2248 15.9967L6.3058 13.9578L7.50552 16.7384L6.70595 17.0834L4.86596 12.82L5.70333 12.4584L8.67743 14.5525L7.44842 11.7054L8.24798 11.36L10.0885 15.6238L9.2248 15.9967ZM10.9987 15.2309L9.15868 10.9674L12.3201 9.60268L12.6311 10.3241L10.3304 11.3169L10.7383 12.262L12.879 11.338L13.189 12.0564L11.0483 12.9802L11.5491 14.1406L13.931 13.1127L14.241 13.8311L10.9987 15.2309ZM18.2057 12.1206L15.9808 9.29923L16.5099 12.852L15.5764 13.2549L12.7187 9.43096L13.5996 9.05033L15.5065 11.7017L15.022 8.43684L16.0461 7.99489L18.0787 10.6505L17.4477 7.38991L18.3143 7.01579L19.1189 11.7265L18.2057 12.1206Z"/>
</svg>
