<svg width="20" height="20" viewBox="0 0 20 20" fill="none" xmlns="http://www.w3.org/2000/svg">
<path d="M4.67355 4.0552L12.6466 1.8789L12.2244 1.02544C11.9481 0.470698 11.2743 0.241614 10.7196 0.517863L3.58203 4.0552H4.67355Z"/>
<path d="M15.1214 1.94177C15.0226 1.94177 14.9238 1.95525 14.8249 1.9822L12.9518 2.49427L7.23145 4.05519H13.7244H16.5543L16.2039 2.77052C16.0692 2.26968 15.6155 1.94177 15.1214 1.94177Z"/>
<path d="M17.7249 4.84131H17.4688H17.1207H16.7726H14.1157H4.35261H3.07243H1.99439H1.7945H1.12521C0.770354 4.84131 0.453678 5.00526 0.247052 5.26354C0.152723 5.38258 0.0808535 5.51958 0.0404267 5.67006C0.0157215 5.76439 0 5.86321 0 5.96427V6.09903V7.37921V18.4763C0 19.0962 0.503088 19.5993 1.12296 19.5993H17.7226C18.3425 19.5993 18.8456 19.0962 18.8456 18.4763V15.3433H12.1819C11.1286 15.3433 10.2729 14.4876 10.2729 13.4342V12.4056V12.0575V11.7094V10.9368C10.2729 10.4202 10.4795 9.95082 10.8141 9.60719C11.1106 9.30172 11.5081 9.0951 11.9528 9.04344C12.027 9.03448 12.1033 9.02997 12.1797 9.02997H17.9113H18.2594H18.6075H18.8456V5.96427C18.8478 5.3444 18.3448 4.84131 17.7249 4.84131Z"/>
<path d="M19.6336 10.1035C19.5213 10.0002 19.3888 9.9216 19.2406 9.86994C19.126 9.83179 19.0047 9.80933 18.8767 9.80933H18.8475H18.8251H18.4769H17.2215H12.1816C11.5617 9.80933 11.0586 10.3124 11.0586 10.9323V11.4915V11.8396V12.1877V13.432C11.0586 14.0519 11.5617 14.555 12.1816 14.555H18.8475H18.8767C19.0047 14.555 19.126 14.5325 19.2406 14.4943C19.3888 14.4449 19.5213 14.364 19.6336 14.2607C19.8582 14.0564 19.9997 13.7599 19.9997 13.432V10.9323C19.9997 10.6044 19.8582 10.3079 19.6336 10.1035ZM14.5263 12.4056C14.5263 12.7155 14.2748 12.9671 13.9648 12.9671H13.592C13.2821 12.9671 13.0305 12.7155 13.0305 12.4056V12.0328C13.0305 11.8531 13.1136 11.6936 13.2461 11.5925C13.3427 11.5184 13.4618 11.4713 13.592 11.4713H13.6863H13.9648C14.2748 11.4713 14.5263 11.7228 14.5263 12.0328V12.4056Z"/>
</svg>
