<svg width="27" height="27" viewBox="0 0 27 27" fill="none" xmlns="http://www.w3.org/2000/svg">
<path d="M11.8184 16.0291L16.2097 13.4999L11.8184 10.9707V16.0291Z" fill="#B2C2CD"/>
<path d="M13.5 0C6.0453 0 0 6.0453 0 13.5C0 20.9547 6.0453 27 13.5 27C20.9547 27 27 20.9547 27 13.5C27 6.0453 20.9547 0 13.5 0ZM21.9354 13.5138C21.9354 13.5138 21.9354 16.2517 21.5881 17.5719C21.3935 18.2945 20.8237 18.8643 20.1011 19.0587C18.7809 19.4062 13.5 19.4062 13.5 19.4062C13.5 19.4062 8.23295 19.4062 6.89893 19.0449C6.17631 18.8505 5.60653 18.2805 5.41187 17.5579C5.06435 16.2517 5.06435 13.5 5.06435 13.5C5.06435 13.5 5.06435 10.7623 5.41187 9.44213C5.60632 8.71951 6.19011 8.13572 6.89893 7.94126C8.21915 7.59375 13.5 7.59375 13.5 7.59375C13.5 7.59375 18.7809 7.59375 20.1011 7.95506C20.8237 8.14952 21.3935 8.71951 21.5881 9.44213C21.9494 10.7623 21.9354 13.5138 21.9354 13.5138Z" fill="#B2C2CD"/>
</svg>
