<svg width="22" height="22" viewBox="0 0 22 22" fill="none" xmlns="http://www.w3.org/2000/svg">
<path d="M21.297 20.0385L16.061 14.5928C17.4072 12.9924 18.1449 10.9788 18.1449 8.88249C18.1449 3.98476 14.1601 0 9.26237 0C4.36465 0 0.379883 3.98476 0.379883 8.88249C0.379883 13.7802 4.36465 17.765 9.26237 17.765C11.101 17.765 12.8532 17.2104 14.3513 16.1576L19.6271 21.6447C19.8476 21.8737 20.1442 22 20.462 22C20.7629 22 21.0483 21.8853 21.2649 21.6768C21.7253 21.2338 21.74 20.4992 21.297 20.0385ZM9.26237 2.31717C12.8826 2.31717 15.8277 5.2623 15.8277 8.88249C15.8277 12.5027 12.8826 15.4478 9.26237 15.4478C5.64218 15.4478 2.69705 12.5027 2.69705 8.88249C2.69705 5.2623 5.64218 2.31717 9.26237 2.31717Z" fill="#1963AE"/>
<rect x="6" y="8" width="6" height="2" rx="1" fill="#1963AE"/>
<rect x="10" y="6" width="6" height="2" rx="1" transform="rotate(90 10 6)" fill="#1963AE"/>
</svg>
